<?xml version="1.0" standalone="no"?><!DOCTYPE svg PUBLIC "-//W3C//DTD SVG 1.1//EN" "http://www.w3.org/Graphics/SVG/1.1/DTD/svg11.dtd"><svg t="1653349876681" class="icon" viewBox="0 0 1024 1024" version="1.1" xmlns="http://www.w3.org/2000/svg" p-id="2957" xmlns:xlink="http://www.w3.org/1999/xlink" width="128" height="128"><defs><style type="text/css">@font-face { font-family: feedback-iconfont; src: url("//at.alicdn.com/t/font_1031158_u69w8yhxdu.woff2?t=1630033759944") format("woff2"), url("//at.alicdn.com/t/font_1031158_u69w8yhxdu.woff?t=1630033759944") format("woff"), url("//at.alicdn.com/t/font_1031158_u69w8yhxdu.ttf?t=1630033759944") format("truetype"); }
</style></defs><path d="M937.131 91.878c-29.763-29.763-71.22-36.568-92.589-15.199L645.869 275.352l-92.125-92.125c-11.555-11.555-31.311-3.371-31.311 12.969v285.868c0 10.13 8.212 18.342 18.342 18.342h285.868c16.341 0 24.524-19.756 12.969-31.311l-85.956-85.956 198.673-198.673c21.37-21.368 14.564-62.825-15.198-92.588zM483.225 531.202H197.357c-16.341 0-24.524 19.757-12.969 31.311l85.956 85.956L71.671 847.142c-21.369 21.369-14.564 62.827 15.199 92.589s71.22 36.568 92.589 15.199l198.673-198.673 92.125 92.125c11.555 11.555 31.311 3.371 31.311-12.969V549.544c-0.001-10.13-8.213-18.342-18.343-18.342z" p-id="2958" fill="#f5f5f5"></path></svg>