<svg width="1024" height="1024" xmlns="http://www.w3.org/2000/svg" p-id="4655" version="1.1" class="icon" t="1621755464300">
 <defs>
  <style type="text/css"/>
 </defs>
 <g>
  <title>Layer 1</title>
  <path id="svg_1" fill="#BFC0C3" p-id="4656" d="m547.44119,959.79572l-72.20346,0c-37.15625,0 -67.38472,-30.22846 -67.38472,-67.38471l0,-270.39536c0,-4.03797 -3.28481,-7.32278 -7.3238,-7.32278l-270.39127,0c-37.15625,0 -67.38471,-30.22847 -67.38471,-67.38574l0,-72.20244c0,-37.15624 30.22846,-67.38471 67.38471,-67.38471l270.39127,0c4.03797,0 7.3238,-3.28481 7.3238,-7.3238l0,-270.39127c0,-37.15625 30.22949,-67.38573 67.38471,-67.38573l72.20244,0c37.15728,0 67.38574,30.22948 67.38574,67.38573l0,270.39127c0,4.03797 3.28481,7.3238 7.32278,7.3238l270.39536,0c37.15625,0 67.38471,30.22949 67.38471,67.38471l0,72.20244c0,37.15728 -30.22846,67.38574 -67.38471,67.38574l-270.39536,0c-4.03797,0 -7.32278,3.28481 -7.32278,7.32278l0,270.39536c0,37.15625 -30.22846,67.38471 -67.38471,67.38471zm-399.17538,-486.58414c-11.05682,0 -20.02098,8.96314 -20.02098,20.02098l0,35.94773c0,11.05785 8.96416,20.02098 20.02098,20.02098l252.2634,0c40.21491,0 72.8154,32.60049 72.8154,72.8154l0,252.26749c0,11.05683 8.96314,20.01997 20.01996,20.01997l35.94875,0c11.05682,0 20.01996,-8.96314 20.01996,-20.01997l0,-252.26851c0,-40.21389 32.60049,-72.81438 72.81438,-72.81438l252.26749,0c11.05784,0 20.02098,-8.96416 20.02098,-20.02098l0,-35.94773c0,-11.05682 -8.96314,-20.01996 -20.01996,-20.01996l-252.26749,0c-40.21491,0 -72.81438,-32.60049 -72.81438,-72.81437l0,-252.26647c0,-11.05785 -8.96416,-20.02099 -20.02098,-20.02099l-35.94773,0c-11.05682,0 -20.02098,8.96314 -20.02098,20.02099l0,252.26442c0,40.21491 -32.60049,72.8154 -72.8154,72.8154l-252.2634,0z"/>
  <line stroke="#ffffff" fill-opacity="0" stroke-width="20" stroke-linecap="undefined" stroke-linejoin="undefined" id="svg_2" y2="945.00007" x2="934.00007" y1="123.00001" x1="62.99998" fill="none"/>
  <line stroke="#bfc0c3" stroke-width="30" stroke-linecap="undefined" stroke-linejoin="undefined" id="svg_4" y2="927.99996" x2="951.00003" y1="107.00001" x1="79.99999" opacity="NaN" fill-opacity="0" fill="none"/>
 </g>
</svg>