<svg xmlns="http://www.w3.org/2000/svg" width="1024" height="1024" t="1621756483666" version="1.1" p-id="4958" style=""><rect id="backgroundrect" width="100%" height="100%" x="0" y="0" fill="none" stroke="none"/>
 <defs>
  <style type="text/css"/>
 </defs>
 <g style="" class="currentLayer">
  <title>Layer 1</title>
  <path d="m547.44119,959.79572l-72.20346,0c-37.15625,0 -67.38472,-30.22846 -67.38472,-67.38471l0,-270.39536c0,-4.03797 -3.28481,-7.32278 -7.3238,-7.32278l-270.39127,0c-37.15625,0 -67.38471,-30.22847 -67.38471,-67.38574l0,-72.20244c0,-37.15624 30.22846,-67.38471 67.38471,-67.38471l270.39127,0c4.03797,0 7.3238,-3.28481 7.3238,-7.3238l0,-270.39127c0,-37.15625 30.22949,-67.38573 67.38471,-67.38573l72.20244,0c37.15728,0 67.38574,30.22948 67.38574,67.38573l0,270.39127c0,4.03797 3.28481,7.3238 7.32278,7.3238l270.39536,0c37.15625,0 67.38471,30.22949 67.38471,67.38471l0,72.20244c0,37.15728 -30.22846,67.38574 -67.38471,67.38574l-270.39536,0c-4.03797,0 -7.32278,3.28481 -7.32278,7.32278l0,270.39536c0,37.15625 -30.22846,67.38471 -67.38471,67.38471z" p-id="4959" fill="#BFC0C3" id="svg_1" class=""/>
  <line fill="none" stroke="#bfc0c3" x1="93.55555725097656" y1="89.11111068725586" x2="923.4444675445557" y2="916.1110925078392" id="svg_2" stroke-linejoin="undefined" stroke-linecap="undefined" stroke-width="70" class="" transform="rotate(-89.71085357666016 508.50000000000006,502.61108398437506) "/>
  <line fill="none" x1="112.88885498046875" y1="105.88889694213867" x2="944.8889465332031" y2="943.8888893127441" id="svg_3" stroke-linejoin="undefined" stroke-linecap="undefined" stroke-width="20" stroke="#ffffff" class="" transform="rotate(-89.82890319824219 528.888916015625,524.888916015625) "/>
 </g>
</svg>