<svg width="1024" height="1024" xmlns="http://www.w3.org/2000/svg" t="1621756483666" class="icon" version="1.1" p-id="4958">
 <defs>
  <style type="text/css"/>
 </defs>
 <g>
  <title>Layer 1</title>
  <path d="m547.44119,959.79572l-72.20346,0c-37.15625,0 -67.38472,-30.22846 -67.38472,-67.38471l0,-270.39536c0,-4.03797 -3.28481,-7.32278 -7.3238,-7.32278l-270.39127,0c-37.15625,0 -67.38471,-30.22847 -67.38471,-67.38574l0,-72.20244c0,-37.15624 30.22846,-67.38471 67.38471,-67.38471l270.39127,0c4.03797,0 7.3238,-3.28481 7.3238,-7.3238l0,-270.39127c0,-37.15625 30.22949,-67.38573 67.38471,-67.38573l72.20244,0c37.15728,0 67.38574,30.22948 67.38574,67.38573l0,270.39127c0,4.03797 3.28481,7.3238 7.32278,7.3238l270.39536,0c37.15625,0 67.38471,30.22949 67.38471,67.38471l0,72.20244c0,37.15728 -30.22846,67.38574 -67.38471,67.38574l-270.39536,0c-4.03797,0 -7.32278,3.28481 -7.32278,7.32278l0,270.39536c0,37.15625 -30.22846,67.38471 -67.38471,67.38471z" p-id="4959" fill="#BFC0C3" id="svg_1"/>
  <line fill="none" stroke="#bfc0c3" x1="108" y1="98" x2="939" y2="935" id="svg_2" stroke-linejoin="undefined" stroke-linecap="undefined" stroke-width="70"/>
  <line fill="none" x1="73.99997" y1="117.00001" x2="906.00007" y2="954.99998" id="svg_3" stroke-linejoin="undefined" stroke-linecap="undefined" stroke-width="20" stroke="#ffffff"/>
 </g>
</svg>