<?xml version="1.0" standalone="no"?><!DOCTYPE svg PUBLIC "-//W3C//DTD SVG 1.1//EN" "http://www.w3.org/Graphics/SVG/1.1/DTD/svg11.dtd"><svg t="1621756483666" class="icon" viewBox="0 0 1024 1024" version="1.1" xmlns="http://www.w3.org/2000/svg" p-id="4958" xmlns:xlink="http://www.w3.org/1999/xlink" width="200" height="200"><defs><style type="text/css"></style></defs><path d="M547.441187 959.795723 475.237725 959.795723c-37.156248 0-67.384713-30.228465-67.384713-67.384713L407.853012 622.015649c0-4.037966-3.284813-7.322779-7.323802-7.322779L130.137942 614.69287c-37.156248 0-67.384713-30.228465-67.384713-67.385736l0-72.202439c0-37.156248 30.228465-67.384713 67.384713-67.384713l270.391267 0c4.037966 0 7.323802-3.284813 7.323802-7.323802L407.853012 130.004913c0-37.156248 30.229488-67.385736 67.384713-67.385736l72.202439 0c37.157271 0 67.385736 30.229488 67.385736 67.385736l0 270.391267c0 4.037966 3.284813 7.323802 7.322779 7.323802l270.39536 0c37.156248 0 67.384713 30.229488 67.384713 67.384713l0 72.202439c0 37.157271-30.228465 67.385736-67.384713 67.385736L622.148679 614.69287c-4.037966 0-7.322779 3.284813-7.322779 7.322779l0 270.39536C614.8259 929.567257 584.597435 959.795723 547.441187 959.795723z" p-id="4959" fill="#BFC0C3"></path></svg>