<?xml version="1.0" standalone="no"?><!DOCTYPE svg PUBLIC "-//W3C//DTD SVG 1.1//EN" "http://www.w3.org/Graphics/SVG/1.1/DTD/svg11.dtd"><svg t="1628475028464" class="icon" viewBox="0 0 1024 1024" version="1.1" xmlns="http://www.w3.org/2000/svg" p-id="2316" width="128" height="128" xmlns:xlink="http://www.w3.org/1999/xlink"><defs><style type="text/css"></style></defs><path d="M86.144 724.949333a42.666667 42.666667 0 0 0 24.832 38.741334l383.189333 176.298666c0.64 0.298667 1.365333 0.170667 2.005334 0.469334 5.12 2.048 10.410667 3.456 15.829333 3.456s10.666667-1.365333 15.701333-3.413334c0.682667-0.256 1.408-0.170667 2.090667-0.469333l383.189333-175.914667c15.146667-6.954667 24.874667-22.144 24.874667-38.784V298.624l-0.042667-0.256a41.258667 41.258667 0 0 0-1.664-11.221333c-0.341333-1.194667-0.896-2.261333-1.322666-3.413334a44.672 44.672 0 0 0-3.2-6.954666 44.16 44.16 0 0 0-2.56-3.541334 41.813333 41.813333 0 0 0-8.149334-8.234666c-0.896-0.725333-1.578667-1.536-2.56-2.176-1.109333-0.768-2.432-1.109333-3.584-1.749334-0.810667-0.384-1.365333-0.981333-2.218666-1.365333l-383.189334-170.666667a42.794667 42.794667 0 0 0-34.730666 0l-383.189334 170.666667c-0.853333 0.384-1.493333 0.981333-2.261333 1.408-1.194667 0.64-2.432 1.024-3.541333 1.706667-0.938667 0.64-1.664 1.450667-2.56 2.176a33.237333 33.237333 0 0 0-8.149334 8.234666 44.16 44.16 0 0 0-2.56 3.541334c-1.28 2.218667-2.304 4.565333-3.2 6.954666-0.426667 1.194667-1.024 2.218667-1.322666 3.413334a39.68 39.68 0 0 0-1.664 11.221333l-0.042667 0.256v426.325333z m85.333333-360.362666L469.333333 498.304v336.384l-297.856-137.045333V364.586667z m681.045334 333.354666L554.666667 834.688v-336.426667l297.856-133.717333v333.397333zM512 174.72l278.656 124.117333-153.770667 69.034667L512 423.936 387.114667 367.872 233.344 298.837333 512 174.72z" fill="#BFC0C3" p-id="2317"></path></svg>