<svg width="1024" height="1024" xmlns="http://www.w3.org/2000/svg" class="icon">
 <defs>
  <style type="text/css"/>
 </defs>
 <g>
  <title>background</title>
  <rect fill="none" id="canvas_background" height="402" width="582" y="-1" x="-1"/>
 </g>
 <g>
  <title>Layer 1</title>
  <path id="svg_1" fill="#BFC0C3" d="m86.144,724.94933a42.66667,42.66667 0 0 0 24.832,38.74134l383.18933,176.29866c0.64,0.29867 1.36534,0.17067 2.00534,0.46934c5.12,2.048 10.41066,3.456 15.82933,3.456s10.66667,-1.36534 15.70133,-3.41334c0.68267,-0.256 1.408,-0.17066 2.09067,-0.46933l383.18933,-175.91467c15.14667,-6.95466 24.87467,-22.144 24.87467,-38.784l0,-426.70933l-0.04267,-0.256a41.25867,41.25867 0 0 0 -1.664,-11.22133c-0.34133,-1.19467 -0.896,-2.26134 -1.32266,-3.41334a44.672,44.672 0 0 0 -3.2,-6.95466a44.16,44.16 0 0 0 -2.56,-3.54134a41.81333,41.81333 0 0 0 -8.14934,-8.23466c-0.896,-0.72534 -1.57866,-1.536 -2.56,-2.176c-1.10933,-0.768 -2.432,-1.10934 -3.584,-1.74934c-0.81066,-0.384 -1.36533,-0.98133 -2.21866,-1.36533l-383.18934,-170.66667a42.79467,42.79467 0 0 0 -34.73066,0l-383.18934,170.66667c-0.85333,0.384 -1.49333,0.98133 -2.26133,1.408c-1.19467,0.64 -2.432,1.024 -3.54133,1.70667c-0.93867,0.64 -1.664,1.45066 -2.56,2.176a33.23733,33.23733 0 0 0 -8.14934,8.23466a44.16,44.16 0 0 0 -2.56,3.54134c-1.28,2.21866 -2.304,4.56533 -3.2,6.95466c-0.42666,1.19467 -1.024,2.21867 -1.32266,3.41334a39.68,39.68 0 0 0 -1.664,11.22133l-0.04267,0.256l0,426.32533zm85.33333,-360.36266l297.856,133.71733l0,336.384l-297.856,-137.04533l0,-333.056zm681.04534,333.35466l-297.856,136.74667l0,-336.42667l297.856,-133.71733l0,333.39733zm-340.52267,-523.22133l278.656,124.11733l-153.77067,69.03467l-124.88533,56.064l-124.88533,-56.064l-153.77067,-69.03467l278.656,-124.11733z"/>
  <line stroke="#bfc0c3" stroke-linecap="undefined" stroke-linejoin="undefined" id="svg_2" y2="951.15871" x2="89.692229" y1="83.466266" x1="934.307753" stroke-width="60.5" fill="none"/>
 </g>
</svg>