<?xml version="1.0" standalone="no"?><!DOCTYPE svg PUBLIC "-//W3C//DTD SVG 1.1//EN" "http://www.w3.org/Graphics/SVG/1.1/DTD/svg11.dtd"><svg t="1648641648480" class="icon" viewBox="0 0 1024 1024" version="1.1" xmlns="http://www.w3.org/2000/svg" p-id="5020" xmlns:xlink="http://www.w3.org/1999/xlink" width="200" height="200"><defs><style type="text/css">@font-face { font-family: feedback-iconfont; src: url("//at.alicdn.com/t/font_1031158_u69w8yhxdu.woff2?t=1630033759944") format("woff2"), url("//at.alicdn.com/t/font_1031158_u69w8yhxdu.woff?t=1630033759944") format("woff"), url("//at.alicdn.com/t/font_1031158_u69w8yhxdu.ttf?t=1630033759944") format("truetype"); }
</style></defs><path d="M763.355429 539.648l170.148571-367.286857c17.133714-36.004571 14.994286-62.573714-2.157714-79.725714-17.554286-17.554286-44.141714-18.834286-80.128-2.56l-368.146286 170.989714z m110.153142 276.845714a33.097143 33.097143 0 0 0 46.701715 0 33.097143 33.097143 0 0 0 0-46.701714L260.205714 109.787429c-12.854857-12.854857-33.846857-12.854857-47.140571 0-12.434286 12.434286-12.434286 34.285714 0 46.72zM507.501714 929.645714c20.992 20.571429 49.28 17.133714 69.851429-3.437714 11.574857-11.574857 20.571429-29.568 28.288-46.701714l81.426286-176.585143L321.097143 336.091429l-177.005714 81.846857c-16.713143 7.716571-35.145143 17.152-46.72 28.288-20.992 20.571429-23.990857 49.298286-3.419429 69.851428 15.414857 15.012571 29.988571 19.730286 59.574857 19.730286l323.565714 2.139429c2.998857 0 5.138286 0.420571 6.857143 1.718857a12.251429 12.251429 0 0 1 2.139429 7.277714l1.718857 323.145143c0 29.568 4.717714 45.001143 19.712 59.574857z" p-id="5021" fill="#e6e6e6"></path></svg>