<?xml version="1.0" standalone="no"?><!DOCTYPE svg PUBLIC "-//W3C//DTD SVG 1.1//EN" "http://www.w3.org/Graphics/SVG/1.1/DTD/svg11.dtd"><svg t="1628580371712" class="icon" viewBox="0 0 1024 1024" version="1.1" xmlns="http://www.w3.org/2000/svg" p-id="14330" width="128" height="128" xmlns:xlink="http://www.w3.org/1999/xlink"><defs><style type="text/css"></style></defs><path d="M469.333 469.333l-341.333 0 0-341.333 341.333 0 0 341.333zM213.333 384l170.667 0 0-170.667-170.667 0 0 170.667z" p-id="14331" fill="#BFC0C3"></path><path d="M896 469.333l-341.333 0 0-341.333 341.333 0 0 341.333zM640 384l170.667 0 0-170.667-170.667 0 0 170.667z" p-id="14332" fill="#BFC0C3"></path><path d="M469.333 896l-341.333 0 0-341.333 341.333 0 0 341.333zM213.333 810.667l170.667 0 0-170.667-170.667 0 0 170.667z" p-id="14333" fill="#BFC0C3"></path><path d="M896 896l-341.333 0 0-341.333 341.333 0 0 341.333zM640 810.667l170.667 0 0-170.667-170.667 0 0 170.667z" p-id="14334" fill="#BFC0C3"></path></svg>